# xmcd
#
# Track frame offsets:
#	150
#	14075
#	27629
#	40917
#	60314
#	81658
#	105950
#	122158
#	144245
#	163235
#	181496
#	198232
#	218218
#	237173
#	259723
#	277815
#	295482
#	316299
#	334387
#
# Disc length: 4720
#
# Revision: 1
# Processed by: cddbd v1.5.1PL0 Copyright (c) Steve Scherf et al.
# Submitted via: Feurio! 1.63 - http://www.feurio.com
# Normalized: r0:DSETVAR1
#
DISCID=1e126e13
DTITLE=Various Artist - Various 2  Artists
DYEAR=1900
DGENRE=
TTITLE0=Jennifer Rush - You're My One And Onely
TTITLE1=George Michael - Father Figure
TTITLE2=John Denver and Placido Domingo - Perhaps Love
TTITLE3=Mariah Carey - Always Be My Babe
TTITLE4=Maria Carey and Boys To Men - One Sweet Day
TTITLE5=Mylene Farmer - Rever
TTITLE6=Janet Jackson - Runaway
TTITLE7=Anne Lennox - No More "I Love You's"
TTITLE8=East 17 and GAbrielle - If You Ever
TTITLE9=Boyzone - Words
TTITLE10=Bryan Adams and Barbra Streisand - I Finally Find Someone
TTITLE11=Lionel Richie - Still In Love
TTITLE12=Belida Carlisle - Jealous Cut
TTITLE13=Rod Stewart and The Scotish Euro - Purple Heather
TTITLE14=Rod Stewart - If We Fall In Love Tonight
TTITLE15=EricClapton - Change The World
TTITLE16=Cher - I'ts A Man's World
TTITLE17=Enya - Any where Is
TTITLE18=Seal - Hey Joe
EXTD=
EXTT0=
EXTT1=
EXTT2=
EXTT3=
EXTT4=
EXTT5=
EXTT6=
EXTT7=
EXTT8=
EXTT9=
EXTT10=
EXTT11=
EXTT12=
EXTT13=
EXTT14=
EXTT15=
EXTT16=
EXTT17=
EXTT18=
PLAYORDER=
